{"title":"21 Guns - Green Day (American Idiot Cast Version) HD 720p [mildp","uid":5623269,"size":80023406,"categoryP":"video","categoryS":"music_videos","magnet":"?xt=urn:btih:319fb02e11e8ded27e4408d7d3b9ad1a349dd777&amp;dn=21+Guns+-+Green+Day+%28American+Idiot+Cast+Version%29+HD+720p+%5Bmildp&amp;tr=udp%3A%2F%2Ftracker.openbittorrent.com%3A80&amp;tr=udp%3A%2F%2Fopen.demonii.com%3A1337&amp;tr=udp%3A%2F%2Ftracker.coppersurfer.tk%3A6969&amp;tr=udp%3A%2F%2Fexodus.desync.com%3A6969","seeders":1,"leechers":0,"uploader":"mildpoison","files":2,"time":1276364699,"description":"21 Guns - Green Day (American Idiot Cast Version) HD 720p\n\n\n\n\nDescription\n\n&quot;21 Guns&quot; is a song written and recorded by American punk rock band Green Day. It is the second single from their eighth studio album, 21st Century Breakdown. The single was released through Reprise Records on May 25, 2009 as a digital download and July 14, 2009 as a CD single. The song has been a success on the Billboard Hot 100 chart, peaking at #22, which has become their highest charting single since 2005.\nIt was nominated for a Grammy for Best Rock Performance by a Duo/Group with Vocals and Best Rock Song in 2010. &quot;21 Guns&quot; has sold over 1,727,000 copies as of June, 2010.\n\nThe song is featured heavily in Transformers: Revenge of the Fallen and appears on the soundtrack, which was released on June 23, 2009. It became available for download on the music video game series Rock Band on July 7, 2009, along with the songs &quot;East Jesus Nowhere&quot; and &quot;Know Your Enemy&quot;.\nThis song was featured in episode 6 of The Vampire Diaries.\n\nPlot\n\nThis version of song features the cast of American Idiot and the greenday band members performing and recording the song in studio.\nGreen Day has recorded a version of &quot;21 Guns&quot; with the cast of American Idiot. The recording was produced by Billie Joe Armstrong and was released on December 3rd to Spinner.com and also released for digital download on December 22nd. Video was released Feb 1.\nGreen Day released two versions of the song with the cast of American Idiot. One version had Billie Joe Armstrong as lead vocals for a brief portion of the song. The other version features John Gallagher Jr. It was performed with Armstrong singing lead vocals at the 2010 Grammy Awards.\nThe song was featured in Pinoy Big Brother Teen Edition Clash 2010 in Philippines. featured every single episode of the popular reality tv show in Philippines.\n\n\nSnapshots\n &lt;a href=&quot;\nhttp://img217.imageshack.us/img217/1277/21gunsgreendayamericani.jpg&quot; rel=&quot;nofollow&quot; target=&quot;_NEW&quot;&gt;\nhttp://img217.imageshack.us/img217/1277/21gunsgreendayamericani.jpg&lt;/a&gt;\n &lt;a href=&quot;\nhttp://img820.imageshack.us/img820/1277/21gunsgreendayamericani.jpg&quot; rel=&quot;nofollow&quot; target=&quot;_NEW&quot;&gt;\nhttp://img820.imageshack.us/img820/1277/21gunsgreendayamericani.jpg&lt;/a&gt;\n &lt;a href=&quot;\nhttp://img693.imageshack.us/img693/1277/21gunsgreendayamericani.jpg&quot; rel=&quot;nofollow&quot; target=&quot;_NEW&quot;&gt;\nhttp://img693.imageshack.us/img693/1277/21gunsgreendayamericani.jpg&lt;/a&gt;\n &lt;a href=&quot;\nhttp://img514.imageshack.us/img514/1277/21gunsgreendayamericani.jpg&quot; rel=&quot;nofollow&quot; target=&quot;_NEW&quot;&gt;\nhttp://img514.imageshack.us/img514/1277/21gunsgreendayamericani.jpg&lt;/a&gt;\n &lt;a href=&quot;\nhttp://img341.imageshack.us/img341/1277/21gunsgreendayamericani.jpg&quot; rel=&quot;nofollow&quot; target=&quot;_NEW&quot;&gt;\nhttp://img341.imageshack.us/img341/1277/21gunsgreendayamericani.jpg&lt;/a&gt;\n\n\nDetails\n\n\nGeneral\n\nFormat                           : MPEG-4\nFile size                        : 76.3 MiB\nDuration                         : 5mn 6s\nOverall bit rate                 : 2 090 Kbps\n\nVideo\n\nFormat                           : AVC\nDuration                         : 5mn 6s\nBit rate mode                    : Variable\nBit rate                         : 1,964 Kbps\nMaximum bit rate                 : 4,221 Kbps\nWidth                            : 1,280 pixels\nHeight                           : 720 pixels\nDisplay aspect ratio             : 16:9\nFrame rate mode                  : Constant\nFrame rate                       : 29.970 fps\nScan type                        : Progressive\nStream size                      : 71.7 MiB (94%)\n\nAudio\n\nFormat                           : AAC\nDuration                         : 5mn 6s\nBit rate mode                    : Variable\nBit rate                         : 123 Kbps\nMaximum bit rate                 : 176 Kbps\nChannel(s)                       : 2 channels\nChannel positions                : L R\nSampling rate                    : 44.1 KHz\nResolution                       : 16 bits\nStream size                      : 4.49 MiB (6%)\n\n","torrent":{"xt":"urn:btih:319fb02e11e8ded27e4408d7d3b9ad1a349dd777","amp;dn":"21+Guns+-+Green+Day+%28American+Idiot+Cast+Version%29+HD+720p+%5Bmildp","amp;tr":["udp%3A%2F%2Ftracker.openbittorrent.com%3A80","udp%3A%2F%2Fopen.demonii.com%3A1337","udp%3A%2F%2Ftracker.coppersurfer.tk%3A6969","udp%3A%2F%2Fexodus.desync.com%3A6969"],"infoHash":"319fb02e11e8ded27e4408d7d3b9ad1a349dd777","infoHashBuffer":{"type":"Buffer","data":[49,159,176,46,17,232,222,210,126,68,8,215,211,185,173,26,52,157,215,119]},"announce":[],"urlList":[]}}